<?xml version="1.0" encoding="UTF-8" standalone="no"?>
<!-- Created with Inkscape (http://www.inkscape.org/) -->

<svg
   xmlns:dc="http://purl.org/dc/elements/1.1/"
   xmlns:cc="http://creativecommons.org/ns#"
   xmlns:rdf="http://www.w3.org/1999/02/22-rdf-syntax-ns#"
   xmlns:svg="http://www.w3.org/2000/svg"
   xmlns="http://www.w3.org/2000/svg"
   xmlns:sodipodi="http://sodipodi.sourceforge.net/DTD/sodipodi-0.dtd"
   xmlns:inkscape="http://www.inkscape.org/namespaces/inkscape"
   width="64"
   height="64"
   id="svg2"
   version="1.1"
   inkscape:version="0.48.4 r9939"
   sodipodi:docname="lander.svg"
   inkscape:export-filename="C:\Users\benzap\projects\schutzen\resources\public\images\lander.png"
   inkscape:export-xdpi="90"
   inkscape:export-ydpi="90">
  <defs
     id="defs4" />
  <sodipodi:namedview
     id="base"
     pagecolor="#ffffff"
     bordercolor="#666666"
     borderopacity="1.0"
     inkscape:pageopacity="0.0"
     inkscape:pageshadow="2"
     inkscape:zoom="7.9195959"
     inkscape:cx="37.505311"
     inkscape:cy="45.785709"
     inkscape:document-units="px"
     inkscape:current-layer="layer1"
     showgrid="false"
     inkscape:window-width="1618"
     inkscape:window-height="1031"
     inkscape:window-x="58"
     inkscape:window-y="-4"
     inkscape:window-maximized="1" />
  <metadata
     id="metadata7">
    <rdf:RDF>
      <cc:Work
         rdf:about="">
        <dc:format>image/svg+xml</dc:format>
        <dc:type
           rdf:resource="http://purl.org/dc/dcmitype/StillImage" />
        <dc:title></dc:title>
      </cc:Work>
    </rdf:RDF>
  </metadata>
  <g
     inkscape:label="Layer 1"
     inkscape:groupmode="layer"
     id="layer1"
     transform="translate(0,-988.36218)">
    <path
       sodipodi:end="6.276086"
       sodipodi:start="0"
       transform="matrix(0.89486394,0.02729837,-0.0238187,1.0255943,22.886588,987.45369)"
       d="m 15,45.964287 c 0,6.706315 -1.519034,12.142857 -3.392858,12.142857 -1.8738228,0 -3.3928566,-5.436542 -3.3928566,-12.142857 0,-6.706315 1.5190338,-12.142858 3.3928566,-12.142858 1.864424,0 3.379536,5.384147 3.392772,12.056653 l -3.392772,0.0862 z"
       sodipodi:ry="12.142858"
       sodipodi:rx="3.3928571"
       sodipodi:cy="45.964287"
       sodipodi:cx="11.607142"
       id="path3759"
       style="fill:#00ce3b;fill-opacity:1;stroke:none"
       sodipodi:type="arc" />
    <path
       sodipodi:end="6.276086"
       sodipodi:start="0"
       transform="matrix(-1.0768556,0.62418825,0.57153596,1.17606,42.354638,976.51404)"
       d="m 15,45.964287 c 0,6.706315 -1.519034,12.142857 -3.392858,12.142857 -1.8738228,0 -3.3928566,-5.436542 -3.3928566,-12.142857 0,-6.706315 1.5190338,-12.142858 3.3928566,-12.142858 1.864424,0 3.379536,5.384147 3.392772,12.056653 l -3.392772,0.0862 z"
       sodipodi:ry="12.142858"
       sodipodi:rx="3.3928571"
       sodipodi:cy="45.964287"
       sodipodi:cx="11.607142"
       id="path3761"
       style="fill:#47d43c;fill-opacity:1;stroke:none"
       sodipodi:type="arc" />
    <path
       sodipodi:type="arc"
       style="fill:#47c33c;fill-opacity:1;stroke:none"
       id="path3755"
       sodipodi:cx="11.607142"
       sodipodi:cy="45.964287"
       sodipodi:rx="3.3928571"
       sodipodi:ry="12.142858"
       d="m 15,45.964287 c 0,6.706315 -1.519034,12.142857 -3.392858,12.142857 -1.8738228,0 -3.3928566,-5.436542 -3.3928566,-12.142857 0,-6.706315 1.5190338,-12.142858 3.3928566,-12.142858 1.864424,0 3.379536,5.384147 3.392772,12.056653 l -3.392772,0.0862 z"
       transform="matrix(1.0768556,0.62418825,-0.57153596,1.17606,22.002463,976.51404)"
       sodipodi:start="0"
       sodipodi:end="6.276086" />
    <path
       sodipodi:type="arc"
       style="fill:#47ff3c;fill-opacity:1;stroke:none"
       id="path2985"
       sodipodi:cx="32.232143"
       sodipodi:cy="25.25"
       sodipodi:rx="29.732143"
       sodipodi:ry="22.857143"
       d="m 61.964287,25.25 c 0,12.623652 -13.311534,22.857143 -29.732144,22.857143 C 15.811534,48.107143 2.5,37.873652 2.5,25.25 2.5,12.626348 15.811534,2.3928566 32.232143,2.3928566 c 16.42061,0 29.732144,10.2334914 29.732144,22.8571434 z"
       transform="matrix(1.0750751,0,0,1.1077558,-2.4734018,985.96148)" />
    <path
       sodipodi:type="arc"
       style="fill:#000000;fill-opacity:1;stroke:none"
       id="path3771"
       sodipodi:cx="18.303572"
       sodipodi:cy="23.107143"
       sodipodi:rx="6.6964288"
       sodipodi:ry="8.75"
       d="m 25,23.107143 c 0,4.832492 -2.998093,8.75 -6.696428,8.75 -3.698336,0 -6.696429,-3.917508 -6.696429,-8.75 0,-4.832491 2.998093,-8.75 6.696429,-8.75 3.698335,0 6.696428,3.917509 6.696428,8.75 z"
       transform="translate(0,988.36218)" />
    <path
       transform="translate(28,988.36218)"
       d="m 25,23.107143 c 0,4.832492 -2.998093,8.75 -6.696428,8.75 -3.698336,0 -6.696429,-3.917508 -6.696429,-8.75 0,-4.832491 2.998093,-8.75 6.696429,-8.75 3.698335,0 6.696428,3.917509 6.696428,8.75 z"
       sodipodi:ry="8.75"
       sodipodi:rx="6.6964288"
       sodipodi:cy="23.107143"
       sodipodi:cx="18.303572"
       id="path3773"
       style="fill:#000000;fill-opacity:1;stroke:none"
       sodipodi:type="arc" />
    <path
       sodipodi:type="arc"
       style="fill:#ffff00;fill-opacity:1;stroke:none"
       id="path3775"
       sodipodi:cx="35.267857"
       sodipodi:cy="4.625"
       sodipodi:rx="12.767858"
       sodipodi:ry="2.7678571"
       d="m 48.035714,4.625 c 0,1.5286453 -5.716364,2.7678571 -12.767857,2.7678571 -7.051493,0 -12.767858,-1.2392118 -12.767858,-2.7678571 0,-1.5286453 5.716365,-2.7678571 12.767858,-2.7678571 7.01612,0 12.717726,1.2272686 12.767535,2.7482074 L 35.267857,4.625 z"
       transform="matrix(1,0,0,1.0228099,-3.0892836,986.67027)"
       sodipodi:start="0"
       sodipodi:end="6.276086" />
  </g>
</svg>
